<?xml version="1.0" encoding="UTF-8" standalone="yes"?>
<!DOCTYPE svg PUBLIC "-//W3C//DTD SVG 1.0//EN" "http://www.w3.org/TR/2001/REC-SVG-20010904/DTD/svg10.dtd">
<svg height="100%" width="100%" xmlns="http://www.w3.org/2000/svg" xmlns:svg="http://www.w3.org/2000/svg" xmlns:xlink="http://www.w3.org/1999/xlink">
	<!-- Generated by dtc by Yves Rűtschlé: https://github.com/yrutschle/dtc
 -->
	<marker id="triangleMarker" markerHeight="8" markerWidth="8" orient="auto" refX="0" refY="4">
		<path d="M0,0 L0,8 L4,4 L0,0" style="fill: #000000;" />
	</marker>
	<rect fill="rgb(200,200,200)" height="322.5" stroke="black" stroke-width="1" width="99" x="10.5" y="6" />
	<text style="font-family: Arial; font-size  : 12px;" x="15.5" y="18">Human</text>
	<rect fill="rgb(200,200,200)" height="322.5" stroke="black" stroke-width="1" width="99" x="160.5" y="6" />
	<text style="font-family: Arial; font-size  : 12px;" x="165.5" y="18">Reader laptop</text>
	<rect fill="rgb(200,200,200)" height="322.5" stroke="black" stroke-width="1" width="99" x="310.5" y="6" />
	<text style="font-family: Arial; font-size  : 12px;" x="315.5" y="18">Firewall Router</text>
	<rect fill="rgb(200,200,200)" height="322.5" stroke="black" stroke-width="1" width="249" x="460.5" y="6" />
	<text style="font-family: Arial; font-size  : 12px;" x="465.5" y="18">Mail server DMZ</text>
	<rect fill="rgb(200,200,200)" height="322.5" stroke="black" stroke-width="1" width="99" x="760.5" y="6" />
	<text style="font-family: Arial; font-size  : 12px;" x="765.5" y="18">Front firewall</text>
	<rect fill="rgb(200,200,200)" height="322.5" stroke="black" stroke-width="1" width="99" x="910.5" y="6" />
	<text style="font-family: Arial; font-size  : 12px;" x="915.5" y="18">Sender PC</text>
	<rect fill="rgb(213,184,127)" height="45" stroke="black" stroke-width="1" width="900" x="60" y="30" />
	<text style="font-family: Arial; font-size: 12px; text-anchor: middle" x="510" y="58.5">Human content</text>
	<rect fill="rgb(213,184,127)" height="45" stroke="black" stroke-width="1" width="750" x="210" y="75" />
	<text style="font-family: Arial; font-size: 12px; text-anchor: middle" x="585" y="103.5">RFC2822 message</text>
	<rect fill="rgb(213,184,127)" height="45" stroke="black" stroke-width="1" width="300" x="210" y="120" />
	<text style="font-family: Arial; font-size: 12px; text-anchor: middle" x="360" y="148.5">IMAPS</text>
	<rect fill="rgb(213,184,127)" height="45" stroke="black" stroke-width="1" width="150" x="210" y="165" />
	<text style="font-family: Arial; font-size: 12px; text-anchor: middle" x="285" y="193.5">TCP</text>
	<rect fill="rgb(213,184,127)" height="45" stroke="black" stroke-width="1" width="150" x="210" y="210" />
	<text style="font-family: Arial; font-size: 12px; text-anchor: middle" x="285" y="238.5">IP</text>
	<rect fill="rgb(213,184,127)" height="45" stroke="black" stroke-width="1" width="150" x="210" y="255" />
	<text style="font-family: Arial; font-size: 12px; text-anchor: middle" x="285" y="283.5">Ethernet</text>
	<rect fill="rgb(213,184,127)" height="45" stroke="black" stroke-width="1" width="150" x="360" y="165" />
	<text style="font-family: Arial; font-size: 12px; text-anchor: middle" x="435" y="193.5">TCP</text>
	<rect fill="rgb(213,184,127)" height="45" stroke="black" stroke-width="1" width="150" x="360" y="210" />
	<text style="font-family: Arial; font-size: 12px; text-anchor: middle" x="435" y="238.5">IP</text>
	<rect fill="rgb(213,184,127)" height="45" stroke="black" stroke-width="1" width="150" x="360" y="255" />
	<text style="font-family: Arial; font-size: 12px; text-anchor: middle" x="435" y="283.5">Ethernet</text>
	<rect fill="rgb(213,184,127)" height="45" stroke="black" stroke-width="1" width="150" x="510" y="120" />
	<text style="font-family: Arial; font-size: 12px; text-anchor: middle" x="585" y="148.5">local file</text>
	<rect fill="rgb(213,184,127)" height="45" stroke="black" stroke-width="1" width="300" x="660" y="120" />
	<text style="font-family: Arial; font-size: 12px; text-anchor: middle" x="810" y="148.5">SMTP</text>
	<rect fill="rgb(213,184,127)" height="45" stroke="black" stroke-width="1" width="150" x="660" y="165" />
	<text style="font-family: Arial; font-size: 12px; text-anchor: middle" x="735" y="193.5">TCP</text>
	<rect fill="rgb(213,184,127)" height="45" stroke="black" stroke-width="1" width="150" x="660" y="210" />
	<text style="font-family: Arial; font-size: 12px; text-anchor: middle" x="735" y="238.5">IP</text>
	<rect fill="rgb(213,184,127)" height="45" stroke="black" stroke-width="1" width="150" x="660" y="255" />
	<text style="font-family: Arial; font-size: 12px; text-anchor: middle" x="735" y="283.5">Ethernet</text>
	<rect fill="rgb(213,184,127)" height="45" stroke="black" stroke-width="1" width="150" x="810" y="165" />
	<text style="font-family: Arial; font-size: 12px; text-anchor: middle" x="885" y="193.5">TCP</text>
	<rect fill="rgb(213,184,127)" height="45" stroke="black" stroke-width="1" width="150" x="810" y="210" />
	<text style="font-family: Arial; font-size: 12px; text-anchor: middle" x="885" y="238.5">IP</text>
	<rect fill="rgb(213,184,127)" height="45" stroke="black" stroke-width="1" width="150" x="810" y="255" />
	<text style="font-family: Arial; font-size: 12px; text-anchor: middle" x="885" y="283.5"></text>
	<line fill="white" stroke="black" stroke-linecap="round" stroke-width="4" style="marker-end: url(#triangleMarker);" x1="60" x2="60" y1="30" y2="345" />
	<text style="font-family: Arial; font-size: 12px; text-anchor: end;" transform="rotate(-90,60,345)" x="42" y="350">Human </text>
	<line fill="white" stroke="black" stroke-linecap="round" stroke-width="4" style="marker-end: url(#triangleMarker);" x1="210" x2="210" y1="75" y2="345" />
	<text style="font-family: Arial; font-size: 12px; text-anchor: end;" transform="rotate(-90,210,345)" x="192" y="350">Email client </text>
	<line fill="white" stroke="black" stroke-linecap="round" stroke-width="4" style="marker-end: url(#triangleMarker);" x1="360" x2="360" y1="165" y2="345" />
	<text style="font-family: Arial; font-size: 12px; text-anchor: end;" transform="rotate(-90,360,345)" x="342" y="350">Routing </text>
	<line fill="white" stroke="black" stroke-linecap="round" stroke-width="4" style="marker-end: url(#triangleMarker);" x1="510" x2="510" y1="120" y2="345" />
	<text style="font-family: Arial; font-size: 12px; text-anchor: end;" transform="rotate(-90,510,345)" x="492" y="350">IMAP Server </text>
	<line fill="white" stroke="black" stroke-linecap="round" stroke-width="4" style="marker-end: url(#triangleMarker);" x1="660" x2="660" y1="120" y2="345" />
	<text style="font-family: Arial; font-size: 12px; text-anchor: end;" transform="rotate(-90,660,345)" x="642" y="350">SMTP Server </text>
	<line fill="white" stroke="black" stroke-linecap="round" stroke-width="4" style="marker-end: url(#triangleMarker);" x1="810" x2="810" y1="165" y2="345" />
	<text style="font-family: Arial; font-size: 12px; text-anchor: end;" transform="rotate(-90,810,345)" x="792" y="350">Routing </text>
	<line fill="white" stroke="black" stroke-linecap="round" stroke-width="4" style="marker-end: url(#triangleMarker);" x1="960" x2="960" y1="30" y2="345" />
	<text style="font-family: Arial; font-size: 12px; text-anchor: end;" transform="rotate(-90,960,345)" x="942" y="350">Email client </text>
	<!-- 
	Generated using the Perl SVG Module V2.64
	by Ronan Oger
	Info: http://www.roitsystems.com/
 -->
</svg>